<?xml version="1.0" encoding="UTF-8" standalone="no" ?>
<!DOCTYPE svg PUBLIC "-//W3C//DTD SVG 1.1//EN" "http://www.w3.org/Graphics/SVG/1.1/DTD/svg11.dtd">
<svg xmlns="http://www.w3.org/2000/svg" xmlns:xlink="http://www.w3.org/1999/xlink" version="1.1" width="457.41750415802" height="201.28" xml:space="preserve">
<desc>Created with Fabric.js 1.6.0-rc.1</desc>
<defs></defs>
<g style="stroke: none; stroke-width: 1; stroke-dasharray: none; stroke-linecap: butt; stroke-linejoin: miter; stroke-miterlimit: 10; fill: none; fill-rule: nonzero; opacity: 1;" transform="translate(59.14999999999997 44.22999999999999) scale(0.27 0.27)" >
  <path d="M 598.891 -7.823 l -1.17 8.297 c 5.854 3.556 5.854 4.742 12.879 5.927 c 1.17 9.483 4.683 10.668 4.683 15.41 c 0 9.482 -16.392 15.409 -24.588 17.78 c -1.17 -3.557 -1.17 -10.669 -2.341 -14.225 c -5.854 -10.668 -21.075 -18.965 -31.613 -20.15 c -5.854 0 -23.417 1.185 -26.93 7.112 c -1.17 1.185 -1.17 2.37 -1.17 4.741 c 12.879 2.37 31.612 13.039 29.27 28.448 c -1.17 9.482 -7.024 15.409 -9.366 22.521 c -8.196 -3.556 -9.367 -9.483 -23.417 -13.039 c -16.392 -4.74 -44.492 8.298 -46.834 24.892 c 5.854 -1.185 14.05 -4.741 18.734 -3.556 c 14.05 1.186 22.246 14.224 22.246 28.448 l -1.171 8.297 c -10.538 0 -7.025 -2.37 -21.075 -2.37 c -18.734 0 -39.809 17.78 -42.15 37.93 c 14.05 -4.741 14.05 -10.668 24.587 -8.297 c 5.854 -3.556 10.538 1.185 15.221 4.741 c 2.342 2.37 3.513 4.741 4.683 8.297 c 3.513 5.927 10.538 22.521 9.367 29.633 c -1.17 4.742 -4.683 4.742 -8.196 5.927 c -5.854 1.185 -11.708 4.741 -16.392 7.112 c -5.854 4.741 -12.879 15.41 -14.05 22.521 l -1.17 14.224 c 7.025 -3.556 12.879 -14.224 21.075 -15.41 c 8.196 -2.37 19.904 5.927 24.587 11.854 c 2.342 2.37 4.684 5.927 7.026 9.483 c 3.512 4.741 5.854 5.926 5.854 11.853 c 5.854 4.741 -7.025 8.297 -12.88 13.039 c -5.854 4.74 -14.05 21.335 -15.22 29.633 c -1.171 4.74 0 9.482 2.341 13.038 c 7.025 -5.926 7.025 -13.038 12.88 -17.78 c 2.341 -1.185 4.683 -1.185 7.025 -2.37 c 9.366 -3.556 11.708 0 19.904 4.741 c 3.512 1.185 10.538 7.112 10.538 11.853 c 1.17 4.742 -7.026 9.483 -10.538 15.41 c -7.025 11.853 -5.854 14.223 -5.854 27.262 c 0 3.556 0 11.853 4.683 13.038 c 2.342 1.186 3.513 -1.185 4.683 -3.555 v -5.927 c 1.171 -5.927 5.855 -10.668 10.538 -14.224 c 8.196 -3.556 17.563 -2.37 24.588 2.37 l 4.683 3.557 l 7.025 2.37 l 5.855 4.742 c 8.195 3.556 7.025 1.185 12.879 9.482 c 3.512 0 5.854 2.37 3.512 5.927 c 0 1.185 -10.537 14.224 -12.879 21.336 l -1.17 7.112 c -1.172 15.409 2.34 13.038 2.34 22.52 l 4.684 5.927 c 14.05 -3.556 3.513 -5.926 7.025 -17.78 c 4.684 -10.667 15.221 -15.409 25.759 -14.223 c 7.025 0 12.88 3.556 18.734 7.112 l 21.075 7.112 l 5.854 3.555 c 2.342 1.186 14.05 4.742 16.392 4.742 c 3.512 0 5.854 -1.186 10.537 0 l 14.05 9.482 l 28.1 15.41 l 8.197 7.112 l 17.563 9.482 c 8.195 5.927 12.879 11.853 24.587 11.853 c 1.171 4.742 7.025 8.298 11.709 10.668 c 8.196 4.742 24.588 16.595 32.783 17.78 c 2.342 7.112 19.905 16.595 26.93 17.78 c 2.342 4.741 7.025 7.112 11.708 9.483 l 9.367 8.297 l 8.196 3.556 l 9.367 5.927 l 7.025 5.926 l 12.88 8.297 l 38.637 23.707 c 8.196 4.741 18.734 17.78 28.1 18.965 c 2.342 8.297 18.734 24.892 25.759 33.19 c 7.025 11.852 12.88 23.706 15.221 36.744 v 8.298 l 2.342 8.297 c 1.17 3.556 -1.171 9.482 -2.342 14.224 l -2.342 11.853 l -9.366 17.78 c -4.684 7.112 -8.196 11.853 -15.221 17.78 c -15.221 13.038 -38.638 22.52 -58.543 22.52 c -5.854 0 -16.392 -1.184 -22.246 -2.37 l -8.196 -2.37 c -19.904 -3.556 -33.954 -8.298 -52.688 -16.595 l -39.809 -17.78 c -5.854 -3.556 -12.879 -7.112 -18.733 -8.297 c 1.17 -3.556 3.512 -7.112 2.342 -10.668 c -1.171 -3.556 -9.367 -8.297 -12.88 -10.668 c -11.708 -9.483 -25.758 -16.595 -36.296 -27.262 c -10.538 -10.668 -11.708 -18.966 0 -28.448 c 2.342 -3.556 4.683 -4.742 9.367 -7.112 c 7.025 -3.556 4.683 -4.741 14.05 -7.112 c -12.88 -7.112 -40.98 2.37 -51.517 11.853 l -12.88 14.224 c -3.512 1.185 -7.025 -1.185 -9.366 -3.556 c -5.855 -4.741 -15.221 -14.224 -11.709 -22.521 c 3.513 -8.297 14.05 -13.039 16.392 -15.41 c 1.17 -2.37 1.17 -3.555 1.17 -4.74 l 11.71 -3.557 c -5.855 -2.37 -15.222 -1.185 -21.076 1.186 c -18.733 4.741 -40.98 20.15 -43.321 41.486 c 0 4.741 2.342 8.297 0 9.483 c -3.513 1.185 -14.05 -3.556 -17.563 -4.742 l -45.663 -16.594 c -9.367 -2.37 -9.367 -1.186 -16.392 -2.37 l -10.537 -3.557 l -29.271 -3.556 l -22.247 -5.926 c -15.22 -2.371 -65.567 -8.298 -79.617 -8.298 h -21.075 l -30.442 2.371 c -8.196 1.185 -4.684 2.37 -16.392 2.37 c 0 -2.37 1.17 -4.74 0 -5.926 c -2.342 -3.556 -14.05 -3.556 -17.563 -3.556 l -16.392 1.185 l -23.417 1.186 c -5.854 0 -16.391 0 -21.075 -4.742 c -12.88 -11.853 1.171 -32.003 3.513 -41.486 c -11.709 3.556 -23.417 18.965 -28.1 30.818 l -1.171 7.112 l -3.513 7.112 l -1.17 16.595 l 3.512 7.112 c -11.709 4.741 -19.905 13.038 -32.784 11.853 c -16.392 -1.185 -16.392 -28.448 -14.05 -40.301 c -5.854 3.556 -7.025 7.112 -9.367 13.039 c -7.025 13.038 -3.512 9.482 -5.854 21.335 c 0 4.742 -1.171 7.112 -1.171 11.854 l 3.513 13.038 c 0 4.742 8.195 14.224 7.025 18.965 c -2.342 4.742 -14.05 10.668 -19.905 9.483 c -3.512 0 -7.025 -1.185 -9.367 -3.556 c -7.025 -5.927 -12.879 -22.521 -11.708 -33.189 c -7.025 7.112 -7.025 16.595 -9.367 24.892 c 2.342 3.556 2.342 13.038 2.342 17.78 c 2.342 8.297 5.854 15.409 10.538 22.52 c 4.683 4.742 7.025 7.113 12.879 9.483 c 3.512 1.186 8.196 1.186 9.367 4.742 c 1.17 3.556 -3.513 13.038 -4.684 16.594 l -8.196 35.56 v 13.039 l 2.342 33.189 l 7.025 20.15 l 14.05 23.707 l 17.563 17.78 l 23.417 23.706 l 8.196 3.556 l 5.854 4.741 l 24.588 13.039 l 11.708 8.297 l 9.367 3.556 l 21.075 15.41 l 7.025 2.37 l 5.855 3.556 l 8.195 2.37 l 8.196 5.927 l 11.709 5.927 l 22.246 5.927 c 2.342 5.926 10.538 5.926 15.22 8.297 l 10.539 3.556 l 8.195 3.556 l 21.076 7.112 l 7.025 3.556 l 9.367 2.37 l 9.366 3.556 l 12.88 3.556 l 7.025 1.186 c 4.683 2.37 4.683 4.74 15.22 8.297 l 14.05 3.556 l 10.538 4.741 l 18.734 7.112 l 8.196 3.556 l 12.88 4.741 l 5.853 3.556 l 22.247 8.297 l 14.05 5.927 l 5.854 3.556 l 12.88 5.927 h 4.683 c 3.512 4.741 5.854 3.556 10.537 5.926 l 8.196 4.742 l 8.196 3.555 l 9.367 4.742 l 19.904 5.927 l 16.392 8.297 c 10.538 4.741 19.904 13.038 31.613 14.224 v 3.556 c 4.683 1.185 16.392 7.111 18.733 11.853 c 4.684 0 3.513 2.37 10.538 7.112 c 7.025 3.556 12.88 10.668 18.734 16.594 l 11.708 10.668 c 3.513 2.371 2.342 3.556 8.196 8.297 l 11.708 10.669 l 8.196 8.297 c 3.513 3.556 4.684 2.37 9.367 8.297 l 12.88 16.594 l 12.879 15.41 l 11.708 20.15 l 4.684 5.927 l 4.683 10.668 l 5.854 8.297 l 4.684 14.224 l 4.683 5.927 l 1.17 8.297 l 3.513 8.297 l 3.513 20.15 l 1.17 9.483 c 1.172 5.927 2.342 13.039 2.342 18.966 l -2.341 8.297 c -1.171 5.926 -2.342 11.853 -4.684 16.595 c -11.708 23.706 -37.467 45.042 -64.396 45.042 c -15.221 0 -26.93 1.185 -42.15 -4.742 c -18.734 -5.926 -33.955 -17.78 -48.005 -32.003 c -8.196 -7.112 -15.221 -14.224 -22.246 -22.522 l -10.538 -14.223 l -10.538 -13.04 l -11.708 -17.779 l -4.683 -10.668 l -5.855 -7.112 l -17.562 -27.262 l -43.322 -45.043 l -46.834 -47.412 l -49.175 -32.004 l -14.05 -9.483 c -11.709 -5.926 -33.955 -10.668 -48.005 -11.853 l -22.246 -5.927 c -17.563 -2.37 -36.296 -1.185 -55.03 -1.185 c -3.512 0 -7.025 0 -10.537 2.37 c -8.196 3.557 -15.221 15.41 -11.709 24.892 c 5.854 18.966 29.271 11.854 31.613 11.854 l 5.854 1.185 l 9.367 2.37 c 4.683 0 5.854 -1.185 12.88 0 l 18.733 5.927 c 3.512 1.185 4.683 3.556 9.367 4.742 c 5.854 2.37 11.708 2.37 17.562 5.926 l 8.196 7.112 l 9.367 4.741 l 17.563 14.224 c 4.683 3.556 9.366 10.668 16.392 11.854 v 4.74 l 14.05 10.669 l 5.854 10.668 l 15.22 20.15 l 9.368 15.41 l 3.512 5.926 l 3.513 7.112 l 9.367 16.595 c -17.563 3.555 -24.588 27.262 -23.417 43.857 l 2.341 9.482 h 3.513 c 3.512 -10.668 2.342 -16.594 15.22 -18.965 l -3.512 13.039 l -4.683 13.038 v 14.224 l 4.683 4.741 c 7.025 -4.741 1.171 -8.297 8.196 -16.594 c 3.513 -3.556 10.538 -3.556 10.538 2.37 c 0 3.557 -2.342 8.298 -3.513 11.854 c -1.17 4.74 -2.341 22.52 -1.17 27.262 c 0 2.37 2.341 3.556 3.512 4.741 l 3.513 -13.038 c 2.341 -4.741 9.366 -8.297 15.22 -5.927 c 2.342 1.186 4.684 4.742 7.026 5.927 c 10.537 9.483 5.854 7.112 12.879 17.78 l 8.196 10.668 l 8.196 14.224 c 2.341 3.555 9.367 10.667 11.708 11.853 c 2.342 0 4.684 -1.186 7.025 -1.186 c 1.171 7.112 7.025 14.224 9.367 20.151 l 3.513 8.297 c 4.683 10.668 14.05 33.19 24.587 39.116 v 3.556 c -10.537 4.741 -17.562 16.594 -21.075 27.262 l -2.342 14.224 l 2.342 15.41 l 8.196 18.965 l 9.367 -1.186 c -3.513 -14.223 -2.342 -35.56 16.392 -37.93 c 3.512 -1.185 15.22 2.37 18.733 3.556 c 14.05 4.741 16.392 15.41 26.93 20.15 l 17.562 9.483 l 10.538 2.37 c 5.854 2.371 11.708 5.927 17.563 7.113 l 15.22 1.185 c 10.538 2.37 11.71 4.741 23.418 2.37 c 9.366 -1.185 17.562 -4.74 26.93 -7.111 c 12.878 -4.742 22.245 -8.298 32.783 -17.78 c 4.683 -4.741 5.854 -2.37 7.025 -9.483 c 4.683 -1.185 5.854 -2.37 7.025 -7.112 c 7.025 -1.185 7.025 -3.556 11.708 -9.482 c 4.684 -4.742 9.367 -4.742 10.538 -13.039 c 5.854 -2.37 8.196 -7.112 10.538 -11.853 l 14.05 -27.263 l 10.537 -18.965 c 2.342 -7.112 2.342 -9.483 3.513 -13.038 l 3.512 -5.927 c 2.342 -8.297 8.196 -30.818 8.196 -39.116 l 2.342 -16.594 l 1.17 -16.595 v -17.78 c 18.734 0 35.126 -9.482 43.322 -27.262 l 2.342 -7.112 c 1.17 -7.112 3.512 -10.668 1.17 -17.78 c -5.853 5.927 -7.024 10.668 -14.05 15.41 c -15.22 11.853 -26.929 3.555 -37.466 -10.669 c -2.342 -3.556 -5.855 -14.224 -7.026 -18.965 l -1.17 -8.297 l -7.025 -28.448 l -2.342 -8.297 c -4.684 -14.224 -16.392 -29.633 -17.563 -43.857 c 15.221 -3.556 29.271 -30.819 28.1 -45.043 c 0 -4.74 -3.512 -13.038 -5.854 -17.78 c -5.854 10.669 -5.854 26.078 -18.733 30.819 c -5.855 2.37 -12.88 0 -18.734 -2.37 c -16.392 -7.113 -21.075 -16.595 -31.613 -29.634 c -3.512 -3.556 -12.879 -14.224 -12.879 -18.965 c -1.17 -4.741 5.854 -10.668 9.367 -14.224 c 7.025 -10.668 10.537 -24.892 7.025 -36.745 c -1.171 -4.741 -2.342 -5.927 -5.854 -8.297 c -1.171 4.741 -3.513 10.668 -4.684 15.41 c -3.512 11.852 -16.392 17.779 -28.1 13.038 c -16.392 -5.927 -14.05 -8.298 -25.759 -18.966 l -14.05 -10.667 c -5.854 -5.927 -11.708 -13.04 -2.342 -18.966 c 2.342 -11.853 8.196 -29.633 -2.341 -39.115 c -1.171 10.668 -10.538 30.818 -23.417 29.633 c -4.684 -1.185 -11.709 -5.927 -15.221 -8.298 l -22.246 -17.78 l -14.05 -8.297 l -15.221 -10.668 l -11.709 -4.74 l -14.05 -5.927 c -10.538 -4.742 -10.538 -7.112 -17.563 -10.668 l -23.417 -10.668 l -14.05 -8.298 l -16.392 -5.926 l -9.366 -3.556 l -10.538 -4.741 l -10.538 -4.742 l -8.196 -5.926 l -32.783 -14.224 l -26.93 -16.595 l -24.587 -14.224 l -14.05 -7.112 l -8.197 -7.112 l -26.929 -18.965 l -12.88 -8.297 l -17.562 -17.78 c -17.563 -18.965 -25.759 -32.004 -29.271 -58.08 c -1.171 -4.742 -2.342 -8.298 -2.342 -13.04 c 1.171 -11.853 1.171 -16.594 5.854 -28.447 l 3.513 -9.483 c 1.17 -2.37 3.512 -3.556 5.854 -5.926 c 11.709 -13.039 29.271 -21.336 46.834 -22.522 h 25.759 l 11.708 2.371 l 19.904 3.556 c 7.026 2.37 10.538 4.741 14.05 5.927 l 16.392 4.741 l 36.297 9.483 l 22.246 9.482 c 2.341 1.185 3.512 3.556 7.025 4.741 l 8.196 2.371 l 14.05 7.112 l 22.246 9.483 l 5.854 3.556 c 7.025 3.556 16.392 7.112 21.075 13.038 c 7.026 0 21.076 9.483 26.93 13.039 l 7.025 3.556 l 22.246 14.224 l 9.367 4.74 c 5.854 2.372 9.367 4.742 14.05 9.484 c 9.367 5.926 15.221 5.926 24.588 10.667 l 11.708 5.927 l 5.854 4.741 l 23.417 11.854 l 16.392 9.482 l 19.905 9.483 l 8.196 5.926 l 15.22 7.112 l 8.196 2.371 l 7.026 3.556 l 14.05 5.927 l 15.22 9.482 c 5.855 2.37 9.367 1.186 14.05 7.112 c 7.026 0 18.734 5.927 24.589 9.483 c 7.025 3.556 21.075 7.112 29.27 8.297 v 4.741 h -12.878 l -30.443 -9.482 l -9.366 -4.742 l -21.076 -7.112 l -9.366 -4.74 l -10.538 -3.557 l -21.075 -9.482 l -12.88 -4.742 l -26.929 -13.038 c -5.854 -3.556 -18.733 -11.853 -23.417 -16.595 l -8.196 -8.297 c -2.341 -1.185 -8.196 -8.297 -11.708 -3.556 c -3.513 3.556 1.17 9.483 3.512 11.853 l 12.88 13.039 c 3.512 3.556 9.366 7.112 11.708 10.668 c 8.196 2.37 9.367 7.112 15.221 11.853 l 23.417 15.41 c 9.367 7.111 14.05 15.408 28.1 15.408 c 2.342 4.742 5.855 5.927 10.538 5.927 c 1.17 4.741 3.512 3.556 7.025 5.927 c 7.025 4.74 9.367 7.112 18.734 7.112 c 1.17 4.74 3.512 4.74 8.195 5.926 l 25.76 10.668 l 45.662 11.853 l 15.221 1.186 l 12.88 3.556 l 23.416 5.926 c 5.855 2.37 9.367 7.112 19.905 8.298 v 3.556 c 4.683 1.185 4.683 1.185 7.025 4.74 c 4.683 1.186 12.88 11.854 14.05 16.595 c 4.683 11.854 5.854 22.521 1.17 34.375 c -2.34 7.112 -2.34 8.297 -8.195 13.038 c -15.221 13.039 -23.417 14.224 -42.15 11.854 l -10.538 -1.186 l -23.417 -5.926 v 9.482 c 7.025 1.185 7.025 2.37 12.879 5.927 l 16.392 4.741 c 4.683 1.185 7.025 4.741 11.708 4.741 c 2.342 1.186 4.684 1.186 7.026 0 c 16.391 1.186 25.758 -4.74 37.467 -15.409 l 7.025 -4.741 l 3.512 -5.927 c 5.854 -8.297 7.025 -5.926 9.367 -17.78 h 7.025 v 8.298 c -2.342 7.111 -10.538 17.78 -15.22 22.52 c -3.513 2.371 -14.051 8.298 -14.051 13.04 c 0 5.926 14.05 5.926 17.563 5.926 c 9.366 0 19.904 -1.185 29.27 -5.927 c 12.88 -5.926 28.101 -22.52 33.956 -36.745 l 4.683 -23.706 c 0 -11.853 -7.025 -29.633 -12.88 -39.116 c -8.196 -11.853 -19.904 -16.594 -31.612 -22.52 c -22.247 -11.854 -16.392 -8.298 -38.638 -16.595 l -11.709 -4.742 l -26.93 -8.297 c -7.024 -1.185 -11.708 0 -15.22 -7.112 l 43.321 -5.927 c 4.683 -3.556 14.05 -4.74 21.075 -7.112 c 15.221 -7.112 33.955 -20.15 44.492 -33.189 c 5.854 -5.926 10.538 -7.112 11.709 -16.594 c 5.854 -2.37 7.025 -7.112 9.367 -13.039 c 4.683 -7.112 12.879 -26.077 15.22 -34.374 l 2.342 -7.112 l 4.684 -15.41 l 1.17 -7.111 c 2.342 -16.595 2.342 -22.521 2.342 -39.116 c 0 -10.668 -1.17 -8.297 -2.341 -17.78 c -4.684 -35.56 -17.563 -54.525 -36.297 -82.973 c -7.025 -9.482 -12.88 -17.78 -19.904 -26.077 l -26.93 -32.004 l -25.758 -26.077 l -39.809 -39.115 l -24.588 -20.15 l -8.196 -7.113 l -16.391 -13.038 l -23.418 -17.78 l -21.075 -14.224 l -7.025 -3.556 l -7.025 -7.112 l -18.733 -11.853 l -8.196 -8.298 l -33.955 -23.706 l -36.296 -30.819 l -29.271 -22.52 l -12.88 -10.669 l -25.758 -18.965 l -8.196 -3.556 l -7.025 -7.112 l -8.196 -5.926 l -10.538 -10.668 l -35.125 -30.819 l -44.492 -46.227 l -12.88 -20.15 c -9.366 -13.04 -21.075 -26.078 -22.246 -42.673 l -1.17 -16.594 c 1.17 -2.37 2.341 -4.741 2.341 -7.112 l 2.342 -8.297 c 3.513 -8.298 16.392 -21.336 23.417 -26.078 l 18.733 -8.297 h 8.196 l 5.855 -1.185 c 5.854 0 5.854 1.185 12.879 0 c 2.342 3.556 10.538 4.741 15.22 7.112 l 7.026 4.741 c 14.05 7.112 11.708 2.37 29.271 14.224 l 7.025 3.556 l 18.734 18.965 l 5.854 8.297 l 8.196 8.298 c 3.512 3.556 7.025 10.668 11.708 13.038 l 10.538 24.892 l -4.683 23.707 v 9.482 l 4.683 32.004 l 7.025 14.224 l 7.025 13.038 l 4.684 3.556 l 7.025 7.112 l 11.708 8.298 l 23.417 15.409 h 5.854 c 2.342 5.926 5.854 2.37 9.367 7.112 l 4.683 15.409 l 1.171 16.595 c 1.171 5.926 5.854 28.447 8.196 34.374 l 4.684 8.297 c 5.854 11.854 8.195 18.965 22.246 21.336 c 2.341 -4.741 5.854 -10.668 3.512 -16.594 c 0 -2.371 -3.512 -5.927 -5.854 -11.854 l -3.513 -18.965 c -1.17 -7.112 -5.854 -16.594 2.342 -21.336 c 0 13.039 7.025 20.15 4.683 34.375 l 9.367 16.594 l 10.538 14.224 h 4.683 c 0 2.37 1.171 3.556 2.342 5.927 c 1.17 3.556 15.22 16.594 17.563 18.965 c 7.025 3.556 14.05 2.37 16.391 -7.112 c 1.171 -9.483 -9.366 -22.521 -14.05 -30.818 c -11.708 -17.78 -11.708 -20.151 -16.392 -40.301 c -1.17 -3.556 -4.683 -15.41 -4.683 -18.966 c 1.17 -2.37 1.17 -5.926 3.513 -5.926 c 3.512 -1.186 14.05 7.112 16.392 9.482 c 9.366 9.483 9.366 13.039 16.391 21.336 l 8.196 8.297 c 3.513 4.742 5.854 9.483 11.709 10.668 l 14.05 18.966 l 5.854 2.37 c 1.17 3.556 14.05 15.41 17.563 17.78 c 2.341 1.185 3.512 1.185 5.854 1.185 c 1.17 4.742 5.854 7.112 9.367 10.668 l 14.05 15.41 c 4.683 3.555 10.538 7.111 11.708 13.038 l 12.88 10.668 l 24.587 15.41 l 15.221 10.667 l 17.563 3.556 l 10.538 -2.37 c 3.513 -3.556 4.683 -2.371 8.196 -4.742 l 10.537 -10.668 c 8.196 -7.112 16.392 -11.853 23.417 -20.15 c 4.684 -4.742 9.367 -15.41 8.196 -22.521 c -1.17 -4.742 -7.025 -9.483 -10.537 -10.668 l -8.196 -2.371 c -15.221 -4.741 -28.1 -11.853 -42.15 -18.965 l -45.664 -24.892 l -31.613 -26.077 c -5.854 -4.741 -7.025 -4.741 -12.879 -10.668 l -14.05 -17.78 l -5.854 -5.927 c -3.513 -4.74 -7.025 -10.667 -9.367 -15.409 c 2.341 0 3.512 0 5.854 1.186 l 17.563 10.667 c 8.196 5.927 8.196 9.483 18.733 10.668 c 2.342 7.112 4.684 5.927 9.367 9.483 l 5.854 5.927 c 4.684 3.556 5.855 3.556 9.367 5.926 l 5.854 5.927 l 8.196 5.926 l 9.367 8.298 l 9.367 7.112 c 7.025 3.556 8.196 9.482 16.391 9.482 c 2.342 4.742 3.513 4.742 8.197 7.112 c 5.854 3.556 15.22 10.668 22.246 10.668 c 2.341 5.927 4.683 3.556 9.366 8.297 c 5.855 4.742 25.759 15.41 33.955 17.78 h 12.88 c 10.537 -1.185 7.024 -5.926 16.391 -8.297 c 2.342 -8.297 11.709 -10.668 17.563 -16.595 c 5.854 -7.111 4.683 -10.667 8.196 -17.78 l 12.879 -20.15 c 1.17 -4.741 1.17 -7.112 1.17 -11.853 c 0 -3.556 0 -7.112 -1.17 -10.668 c -4.683 -11.853 -15.221 -9.483 -24.588 -14.224 c -5.854 -2.37 -4.683 -3.556 -12.88 -5.927 l -16.39 -3.556 l -24.589 -10.667 l -18.733 -7.112 l -24.588 -15.41 l -18.734 -8.297 l -39.808 -24.892 l -8.196 -5.926 l -12.88 -9.483 l -19.904 -17.78 l -5.854 -7.112 l -18.734 -15.409 c -4.683 -4.741 -9.367 -15.41 -17.563 -22.521 c -5.854 -4.741 -16.391 -8.297 -23.416 -3.556 c -3.513 2.37 -4.684 7.112 -9.367 7.112 c -5.854 1.185 -17.563 -15.41 -17.563 -20.15 c 0 -1.186 1.171 -2.371 2.342 -3.557 c 3.512 -3.556 9.367 2.371 11.708 5.927 c 10.538 -1.185 17.563 -5.927 17.563 -17.78 c 0 -4.741 0 -8.297 -2.342 -13.039 l -15.22 -18.965 c -1.171 -3.556 -1.171 -16.594 -7.026 -26.077 c -7.025 -9.482 -15.22 -16.594 -26.93 -20.15 c -7.024 -2.371 -17.562 -1.186 -22.245 -7.112 c -7.025 -9.483 -8.196 -18.966 -11.709 -29.633 l -8.196 -21.336 l -9.366 -16.595 l -5.855 -13.038 L 938.437 4.03 l -5.854 -13.038 l -9.367 -14.224 L 916.19 -33.9 l -4.684 -7.112 c -3.512 -5.927 -3.512 -8.297 -10.537 -11.853 c -16.392 -9.483 -29.271 4.741 -29.271 21.336 c 0 8.297 11.708 27.262 17.562 35.56 c 2.342 5.926 5.854 13.038 8.196 20.15 l 1.171 9.483 l 8.196 14.223 c 4.683 11.854 2.342 13.039 5.854 22.522 c 0 2.37 2.342 5.926 1.171 9.482 c -2.342 3.556 -8.196 0 -11.708 -2.37 l -8.196 -3.556 l -18.734 -9.483 l -11.708 -3.556 l -14.05 -8.297 c -4.684 -2.37 -4.684 0 -14.05 -4.742 c -9.367 -5.926 -10.538 -2.37 -18.734 -4.74 l -18.734 -4.742 c -32.783 -8.297 -59.713 -14.224 -94.838 -15.41 c -10.538 -1.185 -22.246 0 -32.784 1.186 l -19.904 2.37 c -5.855 -1.185 -7.025 -10.667 -15.221 -18.965 C 625.82 -0.71 611.77 -6.637 598.89 -7.823 z M 872.87 59.741 c 2.342 0 8.196 -1.186 10.538 -3.556 c 1.17 -2.37 0 -5.927 -1.17 -8.298 c -3.513 -5.926 -8.197 -14.223 -12.88 -18.965 l -18.734 -22.52 l -5.854 -8.298 c -5.854 -5.927 -7.025 -5.927 -12.88 -10.668 c -10.537 -8.297 -5.853 -7.112 -19.904 -14.224 l -8.196 -3.556 c -9.366 -3.556 -18.733 -5.927 -24.587 4.741 c -1.171 2.371 -3.513 4.742 -3.513 7.112 s 4.684 14.224 5.854 17.78 c 4.684 10.668 7.025 9.483 14.05 15.41 c 3.513 3.555 3.513 7.111 5.855 9.482 c 5.854 3.556 11.708 5.927 17.562 8.297 l 5.855 3.556 l 11.708 4.741 l 36.296 18.966 z m 361.792 798.908 l 2.341 7.112 c 2.342 -1.185 7.026 -2.37 9.367 -3.556 c 4.684 -3.556 14.05 -17.78 17.563 -22.52 l 7.025 -8.298 l 4.683 -8.297 l 28.1 -45.043 l 8.197 -14.223 l 7.025 -7.112 l 3.512 -7.112 c 7.025 -10.668 14.05 -18.966 23.417 -27.263 l 4.684 -4.741 c 3.512 -2.37 10.537 -5.927 14.05 -8.297 c 2.341 -1.186 4.683 -2.371 8.196 -3.556 c 9.366 -2.371 22.246 1.185 30.442 5.926 c 4.683 3.556 7.025 7.112 12.88 8.297 c 1.17 9.483 8.195 8.298 8.195 18.966 c 3.512 4.741 5.854 16.594 7.025 22.52 c 2.342 -1.184 3.512 -2.37 4.683 -4.74 c 1.171 -2.371 3.513 -22.522 4.684 -27.263 c 0 -4.741 1.17 -10.668 1.17 -15.41 c -1.17 -24.89 -16.391 -50.968 -37.466 -62.821 c -9.367 -4.742 -19.905 -5.927 -29.272 -8.298 c 11.709 -11.853 36.297 -7.112 48.005 2.371 c 5.854 3.556 9.367 4.741 10.538 11.853 h 4.683 c 0 3.556 1.17 8.298 3.513 11.854 c 3.512 3.556 5.854 -1.186 5.854 -4.742 v -8.297 c 1.17 -10.668 0 -20.15 -3.513 -30.818 c -8.196 -22.522 -30.442 -41.487 -55.03 -41.487 c -8.195 0 -14.05 0 -22.245 2.37 c -12.88 4.742 -22.247 10.669 -31.613 20.151 c -4.684 4.742 -14.05 17.78 -17.563 23.707 l -11.708 48.598 l -2.342 9.483 l -2.342 7.112 l -2.342 10.668 l -3.512 8.297 l -1.171 9.482 l -3.513 8.298 l -4.683 13.038 l -2.342 11.854 l -14.05 37.93 l -8.196 16.594 l -7.025 15.41 l -12.879 21.336 c -3.513 4.74 -2.342 5.926 -7.025 10.667 z M 36.885 1013.927 h 10.538 c -2.342 -7.112 -3.513 -8.297 -5.854 -13.039 c -1.171 -7.111 0 -14.223 0 -21.335 v -8.298 c 3.512 -10.668 14.05 -24.892 23.417 -30.818 l 10.537 -4.741 l 7.025 -3.556 c 7.025 -2.371 18.734 -3.556 25.759 -3.556 c -2.342 4.74 -12.88 13.038 -17.563 18.965 c -10.537 10.668 -9.367 13.038 -15.22 26.077 c -1.172 2.37 -3.513 4.741 -3.513 7.112 l -1.171 17.78 V 1008 c 0 8.298 2.341 13.039 4.683 20.15 l 3.513 9.483 c 7.025 11.854 16.392 22.522 26.93 32.004 c 2.34 3.556 17.562 15.41 21.074 16.595 c 2.342 1.185 3.513 1.185 5.855 1.185 c 2.341 7.112 4.683 3.556 11.708 2.37 l -8.196 -11.852 c -12.88 -21.336 -17.563 -46.228 -2.342 -67.564 c 4.684 -5.927 14.05 -15.41 21.076 -15.41 c 5.854 -4.74 7.025 -3.555 14.05 -4.74 c 9.367 -2.371 4.683 -2.371 17.563 -2.371 H 209 l 14.05 2.37 c 7.025 0 8.196 1.186 14.05 2.371 c 4.683 1.186 5.854 0 9.367 0 l 21.075 5.927 l 7.025 3.556 l 12.88 2.37 l 9.366 3.556 c 4.683 1.186 5.854 0 10.538 3.556 l 15.22 4.742 l 30.443 8.297 l 23.417 5.927 l 28.1 8.297 l 10.538 2.37 l 22.246 5.927 H 459.56 c 7.025 -8.297 8.196 -13.038 -3.513 -17.78 l -23.417 -4.741 l -33.954 -11.853 l -16.392 -9.483 l -10.538 -2.37 l -16.392 -7.112 l -19.904 -10.668 l -11.708 -5.927 l -30.442 -17.78 l -26.93 -14.224 l -26.93 -17.78 l -29.27 -17.78 l -46.834 -32.003 c -18.734 -9.483 -46.834 -14.224 -67.91 -14.224 c -30.441 0 -58.542 13.038 -77.275 36.745 c -3.513 3.556 -8.196 10.668 -10.538 15.41 l -2.342 8.296 c -1.17 4.742 -3.512 9.483 -4.683 14.224 v 13.039 c 1.17 7.112 8.196 28.448 12.88 34.374 l 23.416 28.448 z" style="stroke: #000; stroke-width: 1.18; stroke-dasharray: none; stroke-linecap: butt; stroke-linejoin: miter; stroke-miterlimit: 10; fill: #ff0538; fill-rule: nonzero; opacity: 1;" transform=" matrix(0.21356527682843474 0 0 0.21356527682843474 0 0) " stroke-linecap="round" />
</g>
<g style="stroke: none; stroke-width: 1; stroke-dasharray: none; stroke-linecap: butt; stroke-linejoin: miter; stroke-miterlimit: 10; fill: none; fill-rule: nonzero; opacity: 1;" transform="translate(10 10) scale(1.03 1.03)" >
  <path d="M 61.9 813 C 61.9 460 348 174 701 174 c 359 0 639 286 639 639 c 0 126 -40 247 -100 347 c 110 -130 170 -284 170 -457 C 1410 315 1090 0 703 0 C 315 0 0 315 0 703 C 0 867 56 1020 150 1140 C 93.9 1040 61.9 932 61.9 813" style="stroke: none; stroke-width: 1; stroke-dasharray: none; stroke-linecap: butt; stroke-linejoin: miter; stroke-miterlimit: 10; fill: #351f17; fill-rule: nonzero; opacity: 0;" transform=" matrix(0.125 0 0 -0.125 0 176) " stroke-linecap="round" />
  <path d="m 797 1360 c -298 0 -540 -240 -540 -542 c 0 -299 242 -541 540 -541 c 107 0 203 31 293 84 C 983 274 850 222 704 222 C 376 222 110 488 110 816 c 0 324 266 594 594 594 c 138 0 266 -50 366 -130 c -80 50 -173 80 -273 80" style="stroke: none; stroke-width: 1; stroke-dasharray: none; stroke-linecap: butt; stroke-linejoin: miter; stroke-miterlimit: 10; fill: #967e72; fill-rule: nonzero; opacity: 1;" transform=" matrix(0.125 0 0 -0.125 0 176) " stroke-linecap="round" />
  <path d="m 1050 446 c 180 173 180 455 0 624 c -170 180 -451 180 -625 0 c -62 -60 -101 -133 -119 -213 c 9 111 56 223 141 303 c 191 190 500 190 693 0 c 190 -190 190 -500 0 -690 c -80 -81 -184 -127 -289 -140 c 74 19 144 58 199 116" style="stroke: none; stroke-width: 1; stroke-dasharray: none; stroke-linecap: butt; stroke-linejoin: miter; stroke-miterlimit: 10; fill: #bf935b; fill-rule: nonzero; opacity: 1;" transform=" matrix(0.125 0 0 -0.125 0 176) " stroke-linecap="round" />
</g>
  <g transform="translate(56.02 61.72) scale(54.28 1) matrix(-1 0 0 1 0 0) ">
   <text font-family="ADAMCG PRO" font-size="40" font-weight="normal" style="stroke: none; stroke-width: 1; stroke-dasharray: none; stroke-linecap: butt; stroke-linejoin: miter; stroke-miterlimit: 10; fill: #000000; fill-rule: nonzero; opacity: 1;" ><tspan x="0" y="8.98" fill="#000000"></tspan></text>
 </g>
  <g transform="translate(329.83 108.2) scale(1.09 0.86)">
   <text font-family="ValkDisplay" font-size="40" font-style="italic" font-weight="bold" style="stroke: none; stroke-width: 1; stroke-dasharray: none; stroke-linecap: butt; stroke-linejoin: miter; stroke-miterlimit: 10; fill: #fcfcfc; fill-rule: nonzero; opacity: 1;" ><tspan x="-108.38" y="8.98" style="stroke: none; stroke-width: 0; stroke-dasharray: none; stroke-linecap: butt; stroke-linejoin: miter; stroke-miterlimit: 4; fill: #fcfcfc; fill-rule: ; opacity: 1;">H</tspan><tspan x="-70.44" y="8.98" style="stroke: none; stroke-width: 0; stroke-dasharray: none; stroke-linecap: butt; stroke-linejoin: miter; stroke-miterlimit: 4; fill: #fcfcfc; fill-rule: ; opacity: 1;">e</tspan><tspan x="-39.67" y="8.98" style="stroke: none; stroke-width: 0; stroke-dasharray: none; stroke-linecap: butt; stroke-linejoin: miter; stroke-miterlimit: 4; fill: #fcfcfc; fill-rule: ; opacity: 1;">a</tspan><tspan x="-1.75" y="8.98" style="stroke: none; stroke-width: 0; stroke-dasharray: none; stroke-linecap: butt; stroke-linejoin: miter; stroke-miterlimit: 4; fill: #fcfcfc; fill-rule: ; opacity: 1;">v</tspan><tspan x="37.79" y="8.98" style="stroke: none; stroke-width: 0; stroke-dasharray: none; stroke-linecap: butt; stroke-linejoin: miter; stroke-miterlimit: 4; fill: #fcfcfc; fill-rule: ; opacity: 1;">e</tspan><tspan x="68.56" y="8.98" style="stroke: none; stroke-width: 0; stroke-dasharray: none; stroke-linecap: butt; stroke-linejoin: miter; stroke-miterlimit: 4; fill: #fcfcfc; fill-rule: ; opacity: 1;">n</tspan></text>
 </g>
</svg>